<?xml version="1.0" encoding="UTF-8" standalone="no"?>
<!DOCTYPE svg PUBLIC "-//W3C//DTD SVG 1.1//EN" "http://www.w3.org/Graphics/SVG/1.1/DTD/svg11.dtd">
<svg width="100%" height="100%" viewBox="0 0 1440 900" version="1.1" xmlns="http://www.w3.org/2000/svg" xmlns:xlink="http://www.w3.org/1999/xlink" xml:space="preserve" xmlns:serif="http://www.serif.com/" style="fill-rule:evenodd;clip-rule:evenodd;stroke-linecap:round;stroke-linejoin:round;stroke-miterlimit:1.5;">
    <g transform="matrix(0.946112,-0.323838,0.755623,2.2076,38.9713,34.0663)">
        <path d="M405,254.95C405,246.699 389.369,240 370.117,240L229.883,240C210.631,240 195,246.699 195,254.95L195,255.05C195,263.301 210.631,270 229.883,270L370.117,270C389.369,270 405,263.301 405,255.05L405,254.95Z" style="fill:rgb(62,70,255);"/>
    </g>
    <g transform="matrix(0.946112,-0.323838,0.755623,2.2076,222.511,246.053)">
        <path d="M405,254.95C405,246.699 389.369,240 370.117,240L229.883,240C210.631,240 195,246.699 195,254.95L195,255.05C195,263.301 210.631,270 229.883,270L370.117,270C389.369,270 405,263.301 405,255.05L405,254.95Z" style="fill:rgb(62,70,255);"/>
    </g>
    <g transform="matrix(0.946112,-0.323838,0.755623,2.2076,-307.312,427.402)">
        <path d="M405,254.95C405,246.699 389.369,240 370.117,240L229.883,240C210.631,240 195,246.699 195,254.95L195,255.05C195,263.301 210.631,270 229.883,270L370.117,270C389.369,270 405,263.301 405,255.05L405,254.95Z" style="fill:rgb(62,70,255);"/>
    </g>
    <g transform="matrix(0.946112,-0.323838,0.755623,2.2076,487.423,155.378)">
        <path d="M405,254.95C405,246.699 389.369,240 370.117,240L229.883,240C210.631,240 195,246.699 195,254.95L195,255.05C195,263.301 210.631,270 229.883,270L370.117,270C389.369,270 405,263.301 405,255.05L405,254.95Z" style="fill:rgb(62,70,255);"/>
    </g>
    <g transform="matrix(0.946112,-0.323838,0.755623,2.2076,884.79,19.3657)">
        <path d="M405,254.95C405,246.699 389.369,240 370.117,240L229.883,240C210.631,240 195,246.699 195,254.95L195,255.05C195,263.301 210.631,270 229.883,270L370.117,270C389.369,270 405,263.301 405,255.05L405,254.95Z" style="fill:rgb(62,70,255);"/>
    </g>
    <g transform="matrix(0.946112,-0.323838,0.755623,2.2076,-358.263,-88.9215)">
        <path d="M405,254.95C405,246.699 389.369,240 370.117,240L229.883,240C210.631,240 195,246.699 195,254.95L195,255.05C195,263.301 210.631,270 229.883,270L370.117,270C389.369,270 405,263.301 405,255.05L405,254.95Z" style="fill:rgb(62,70,255);"/>
    </g>
    <g transform="matrix(0.946112,-0.323838,0.755623,2.2076,-93.3514,-179.596)">
        <path d="M405,254.95C405,246.699 389.369,240 370.117,240L229.883,240C210.631,240 195,246.699 195,254.95L195,255.05C195,263.301 210.631,270 229.883,270L370.117,270C389.369,270 405,263.301 405,255.05L405,254.95Z" style="fill:rgb(62,70,255);"/>
    </g>
    <g transform="matrix(0.946112,-0.323838,0.755623,2.2076,302.124,-314.961)">
        <path d="M405,254.95C405,246.699 389.369,240 370.117,240L229.883,240C210.631,240 195,246.699 195,254.95L195,255.05C195,263.301 210.631,270 229.883,270L370.117,270C389.369,270 405,263.301 405,255.05L405,254.95Z" style="fill:rgb(62,70,255);"/>
    </g>
    <g transform="matrix(0.946112,-0.323838,0.755623,2.2076,966.161,-283.295)">
        <path d="M405,254.95C405,246.699 389.369,240 370.117,240L229.883,240C210.631,240 195,246.699 195,254.95L195,255.05C195,263.301 210.631,270 229.883,270L370.117,270C389.369,270 405,263.301 405,255.05L405,254.95Z" style="fill:rgb(62,70,255);"/>
    </g>
    <g transform="matrix(0.946112,-0.323838,0.755623,2.2076,303.883,-56.6084)">
        <path d="M405,254.95C405,246.699 389.369,240 370.117,240L229.883,240C210.631,240 195,246.699 195,254.95L195,255.05C195,263.301 210.631,270 229.883,270L370.117,270C389.369,270 405,263.301 405,255.05L405,254.95Z" style="fill:rgb(62,70,255);"/>
    </g>
    <g transform="matrix(0.946112,-0.323838,0.755623,2.2076,568.794,-147.283)">
        <path d="M405,254.95C405,246.699 389.369,240 370.117,240L229.883,240C210.631,240 195,246.699 195,254.95L195,255.05C195,263.301 210.631,270 229.883,270L370.117,270C389.369,270 405,263.301 405,255.05L405,254.95Z" style="fill:rgb(62,70,255);"/>
    </g>
    <g transform="matrix(0.946112,-0.323838,0.323838,0.946112,-501.754,551.032)">
        <circle cx="489" cy="281" r="35" style="fill:rgb(62,70,255);"/>
    </g>
    <g transform="matrix(0.946112,-0.323838,0.323838,0.946112,-369.298,505.695)">
        <circle cx="489" cy="281" r="35" style="fill:rgb(62,70,255);"/>
    </g>
    <g transform="matrix(0.946112,-0.323838,0.323838,0.946112,26.31,111.33)">
        <circle cx="489" cy="281" r="35" style="fill:rgb(62,70,255);"/>
    </g>
    <g transform="matrix(0.946112,-0.323838,0.323838,0.946112,-53.3026,672.343)">
        <circle cx="489" cy="281" r="35" style="fill:rgb(62,70,255);"/>
    </g>
    <g transform="matrix(0.946112,-0.323838,0.323838,0.946112,556.133,-70.0194)">
        <circle cx="489" cy="281" r="35" style="fill:rgb(62,70,255);"/>
    </g>
    <g transform="matrix(0.946112,-0.323838,0.323838,0.946112,688.589,-115.357)">
        <circle cx="489" cy="281" r="35" style="fill:rgb(62,70,255);"/>
    </g>
    <g transform="matrix(0.946112,-0.323838,0.755623,2.2076,635.693,370.753)">
        <path d="M405,254.95C405,246.699 389.369,240 370.117,240L229.883,240C210.631,240 195,246.699 195,254.95L195,255.05C195,263.301 210.631,270 229.883,270L370.117,270C389.369,270 405,263.301 405,255.05L405,254.95Z" style="fill:rgb(62,70,255);"/>
    </g>
    <g transform="matrix(0.946112,-0.323838,0.755623,2.2076,-219.307,-397.321)">
        <path d="M405,254.95C405,246.699 389.369,240 370.117,240L229.883,240C210.631,240 195,246.699 195,254.95L195,255.05C195,263.301 210.631,270 229.883,270L370.117,270C389.369,270 405,263.301 405,255.05L405,254.95Z" style="fill:rgb(62,70,255);"/>
    </g>
    <g transform="matrix(0.946112,-0.323838,0.323838,0.946112,757.246,661.032)">
        <circle cx="489" cy="281" r="35" style="fill:rgb(62,70,255);"/>
    </g>
    <g transform="matrix(0.946112,-0.323838,0.323838,0.946112,889.702,615.695)">
        <circle cx="489" cy="281" r="35" style="fill:rgb(62,70,255);"/>
    </g>
    <g transform="matrix(0.946112,-0.323838,0.323838,0.946112,360.246,797.045)">
        <circle cx="489" cy="281" r="35" style="fill:rgb(62,70,255);"/>
    </g>
    <g transform="matrix(0.946112,-0.323838,0.323838,0.946112,-494.754,28.9709)">
        <circle cx="489" cy="281" r="35" style="fill:rgb(62,70,255);"/>
    </g>
    <g transform="matrix(0.946112,-0.323838,0.755623,2.2076,27.9713,30.0663)">
        <path d="M405,254.95C405,246.699 389.369,240 370.117,240L229.883,240C210.631,240 195,246.699 195,254.95L195,255.05C195,263.301 210.631,270 229.883,270L370.117,270C389.369,270 405,263.301 405,255.05L405,254.95Z" style="fill:none;stroke:rgb(62,166,255);stroke-width:1.11px;"/>
    </g>
    <g transform="matrix(0.946112,-0.323838,0.755623,2.2076,211.511,242.053)">
        <path d="M405,254.95C405,246.699 389.369,240 370.117,240L229.883,240C210.631,240 195,246.699 195,254.95L195,255.05C195,263.301 210.631,270 229.883,270L370.117,270C389.369,270 405,263.301 405,255.05L405,254.95Z" style="fill:none;stroke:rgb(62,166,255);stroke-width:1.11px;"/>
    </g>
    <g transform="matrix(0.946112,-0.323838,0.755623,2.2076,-318.312,423.402)">
        <path d="M405,254.95C405,246.699 389.369,240 370.117,240L229.883,240C210.631,240 195,246.699 195,254.95L195,255.05C195,263.301 210.631,270 229.883,270L370.117,270C389.369,270 405,263.301 405,255.05L405,254.95Z" style="fill:none;stroke:rgb(62,166,255);stroke-width:1.11px;"/>
    </g>
    <g transform="matrix(0.946112,-0.323838,0.755623,2.2076,476.423,151.378)">
        <path d="M405,254.95C405,246.699 389.369,240 370.117,240L229.883,240C210.631,240 195,246.699 195,254.95L195,255.05C195,263.301 210.631,270 229.883,270L370.117,270C389.369,270 405,263.301 405,255.05L405,254.95Z" style="fill:none;stroke:rgb(62,166,255);stroke-width:1.11px;"/>
    </g>
    <g transform="matrix(0.946112,-0.323838,0.755623,2.2076,873.79,15.3657)">
        <path d="M405,254.95C405,246.699 389.369,240 370.117,240L229.883,240C210.631,240 195,246.699 195,254.95L195,255.05C195,263.301 210.631,270 229.883,270L370.117,270C389.369,270 405,263.301 405,255.05L405,254.95Z" style="fill:none;stroke:rgb(62,166,255);stroke-width:1.11px;"/>
    </g>
    <g transform="matrix(0.946112,-0.323838,0.755623,2.2076,-369.263,-92.9215)">
        <path d="M405,254.95C405,246.699 389.369,240 370.117,240L229.883,240C210.631,240 195,246.699 195,254.95L195,255.05C195,263.301 210.631,270 229.883,270L370.117,270C389.369,270 405,263.301 405,255.05L405,254.95Z" style="fill:none;stroke:rgb(62,166,255);stroke-width:1.11px;"/>
    </g>
    <g transform="matrix(0.946112,-0.323838,0.755623,2.2076,-104.351,-183.596)">
        <path d="M405,254.95C405,246.699 389.369,240 370.117,240L229.883,240C210.631,240 195,246.699 195,254.95L195,255.05C195,263.301 210.631,270 229.883,270L370.117,270C389.369,270 405,263.301 405,255.05L405,254.95Z" style="fill:none;stroke:rgb(62,166,255);stroke-width:1.11px;"/>
    </g>
    <g transform="matrix(0.946112,-0.323838,0.755623,2.2076,291.124,-318.961)">
        <path d="M405,254.95C405,246.699 389.369,240 370.117,240L229.883,240C210.631,240 195,246.699 195,254.95L195,255.05C195,263.301 210.631,270 229.883,270L370.117,270C389.369,270 405,263.301 405,255.05L405,254.95Z" style="fill:none;stroke:rgb(62,166,255);stroke-width:1.11px;"/>
    </g>
    <g transform="matrix(0.946112,-0.323838,0.755623,2.2076,955.161,-287.295)">
        <path d="M405,254.95C405,246.699 389.369,240 370.117,240L229.883,240C210.631,240 195,246.699 195,254.95L195,255.05C195,263.301 210.631,270 229.883,270L370.117,270C389.369,270 405,263.301 405,255.05L405,254.95Z" style="fill:none;stroke:rgb(62,166,255);stroke-width:1.11px;"/>
    </g>
    <g transform="matrix(0.946112,-0.323838,0.755623,2.2076,292.883,-60.6084)">
        <path d="M405,254.95C405,246.699 389.369,240 370.117,240L229.883,240C210.631,240 195,246.699 195,254.95L195,255.05C195,263.301 210.631,270 229.883,270L370.117,270C389.369,270 405,263.301 405,255.05L405,254.95Z" style="fill:none;stroke:rgb(62,166,255);stroke-width:1.11px;"/>
    </g>
    <g transform="matrix(0.946112,-0.323838,0.755623,2.2076,557.794,-151.283)">
        <path d="M405,254.95C405,246.699 389.369,240 370.117,240L229.883,240C210.631,240 195,246.699 195,254.95L195,255.05C195,263.301 210.631,270 229.883,270L370.117,270C389.369,270 405,263.301 405,255.05L405,254.95Z" style="fill:none;stroke:rgb(62,166,255);stroke-width:1.11px;"/>
    </g>
    <g transform="matrix(0.946112,-0.323838,0.323838,0.946112,-512.754,547.032)">
        <circle cx="489" cy="281" r="35" style="fill:none;stroke:rgb(62,166,255);stroke-width:2px;"/>
    </g>
    <g transform="matrix(0.946112,-0.323838,0.323838,0.946112,-380.298,501.695)">
        <circle cx="489" cy="281" r="35" style="fill:none;stroke:rgb(62,166,255);stroke-width:2px;"/>
    </g>
    <g transform="matrix(0.946112,-0.323838,0.323838,0.946112,15.31,107.33)">
        <circle cx="489" cy="281" r="35" style="fill:none;stroke:rgb(62,166,255);stroke-width:2px;"/>
    </g>
    <g transform="matrix(0.946112,-0.323838,0.323838,0.946112,-64.3026,668.343)">
        <circle cx="489" cy="281" r="35" style="fill:none;stroke:rgb(62,166,255);stroke-width:2px;"/>
    </g>
    <g transform="matrix(0.946112,-0.323838,0.323838,0.946112,545.133,-74.0194)">
        <circle cx="489" cy="281" r="35" style="fill:none;stroke:rgb(62,166,255);stroke-width:2px;"/>
    </g>
    <g transform="matrix(0.946112,-0.323838,0.323838,0.946112,677.589,-119.357)">
        <circle cx="489" cy="281" r="35" style="fill:none;stroke:rgb(62,166,255);stroke-width:2px;"/>
    </g>
    <g transform="matrix(0.946112,-0.323838,0.755623,2.2076,624.693,366.753)">
        <path d="M405,254.95C405,246.699 389.369,240 370.117,240L229.883,240C210.631,240 195,246.699 195,254.95L195,255.05C195,263.301 210.631,270 229.883,270L370.117,270C389.369,270 405,263.301 405,255.05L405,254.95Z" style="fill:none;stroke:rgb(62,166,255);stroke-width:1.11px;"/>
    </g>
    <g transform="matrix(0.946112,-0.323838,0.755623,2.2076,-230.307,-401.321)">
        <path d="M405,254.95C405,246.699 389.369,240 370.117,240L229.883,240C210.631,240 195,246.699 195,254.95L195,255.05C195,263.301 210.631,270 229.883,270L370.117,270C389.369,270 405,263.301 405,255.05L405,254.95Z" style="fill:none;stroke:rgb(62,166,255);stroke-width:1.11px;"/>
    </g>
    <g transform="matrix(0.946112,-0.323838,0.323838,0.946112,746.246,657.032)">
        <circle cx="489" cy="281" r="35" style="fill:none;stroke:rgb(62,166,255);stroke-width:2px;"/>
    </g>
    <g transform="matrix(0.946112,-0.323838,0.323838,0.946112,878.702,611.695)">
        <circle cx="489" cy="281" r="35" style="fill:none;stroke:rgb(62,166,255);stroke-width:2px;"/>
    </g>
    <g transform="matrix(0.946112,-0.323838,0.323838,0.946112,349.246,793.045)">
        <circle cx="489" cy="281" r="35" style="fill:none;stroke:rgb(62,166,255);stroke-width:2px;"/>
    </g>
    <g transform="matrix(0.946112,-0.323838,0.323838,0.946112,-505.754,24.9709)">
        <circle cx="489" cy="281" r="35" style="fill:none;stroke:rgb(62,166,255);stroke-width:2px;"/>
    </g>
</svg>
